<svg xmlns="http://www.w3.org/2000/svg" width="50" height="50" fill="none" viewBox="0 0 50 50"><path fill="#000" d="M39.4392 11.7528C36.7836 10.5342 33.9357 9.63646 30.9581 9.12227C30.9039 9.11235 30.8498 9.13715 30.8218 9.18675C30.4556 9.83817 30.0499 10.688 29.7658 11.3559C26.5632 10.8765 23.377 10.8765 20.2401 11.3559C19.956 10.6731 19.5356 9.83817 19.1677 9.18675C19.1397 9.13881 19.0856 9.11401 19.0313 9.12227C16.0554 9.63482 13.2076 10.5326 10.5502 11.7528C10.5272 11.7627 10.5075 11.7792 10.4944 11.8007C5.09268 19.8708 3.61292 27.7425 4.33884 35.5166C4.34213 35.5547 4.36348 35.591 4.39304 35.6142C7.95695 38.2314 11.4092 39.8203 14.7973 40.8735C14.8516 40.89 14.909 40.8702 14.9435 40.8256C15.745 39.7311 16.4594 38.577 17.072 37.3634C17.1081 37.2923 17.0736 37.208 16.9998 37.1799C15.8665 36.75 14.7875 36.2259 13.7495 35.6307C13.6674 35.5828 13.6608 35.4653 13.7364 35.4091C13.9548 35.2454 14.1733 35.0751 14.3819 34.9032C14.4196 34.8718 14.4722 34.8652 14.5165 34.885C21.3356 37.9983 28.7179 37.9983 35.4565 34.885C35.5009 34.8635 35.5534 34.8702 35.5928 34.9016C35.8015 35.0735 36.0199 35.2454 36.24 35.4091C36.3155 35.4653 36.3106 35.5828 36.2285 35.6307C35.1905 36.2375 34.1114 36.75 32.9766 37.1783C32.9027 37.2064 32.8698 37.2923 32.906 37.3634C33.5317 38.5753 34.2461 39.7294 35.0328 40.8239C35.0657 40.8702 35.1248 40.89 35.179 40.8735C38.5836 39.8203 42.0358 38.2314 45.5997 35.6142C45.6309 35.591 45.6506 35.5563 45.6539 35.5183C46.5227 26.5305 44.1988 18.7234 39.4934 11.8024C39.4819 11.7792 39.4622 11.7627 39.4392 11.7528ZM18.0903 30.783C16.0373 30.783 14.3457 28.8982 14.3457 26.5835C14.3457 24.2687 16.0045 22.3839 18.0903 22.3839C20.1925 22.3839 21.8677 24.2853 21.8348 26.5835C21.8348 28.8982 20.176 30.783 18.0903 30.783ZM31.9353 30.783C29.8824 30.783 28.1908 28.8982 28.1908 26.5835C28.1908 24.2687 29.8495 22.3839 31.9353 22.3839C34.0375 22.3839 35.7127 24.2853 35.6799 26.5835C35.6799 28.8982 34.0375 30.783 31.9353 30.783Z"/></svg>