<svg xmlns="http://www.w3.org/2000/svg" width="50" height="50" fill="none" viewBox="0 0 50 50"><path fill="#000" fill-rule="evenodd" d="M25 4.68066C13.4896 4.68066 4.16669 14.0036 4.16669 25.514C4.16669 34.7327 10.1302 42.5192 18.4115 45.2796C19.4531 45.4619 19.8438 44.8369 19.8438 44.29C19.8438 43.7952 19.8177 42.1546 19.8177 40.4098C14.5834 41.3734 13.2292 39.1338 12.8125 37.9619C12.5781 37.363 11.5625 35.514 10.6771 35.0192C9.94794 34.6286 8.90627 33.665 10.6511 33.639C12.2917 33.613 13.4636 35.1494 13.8542 35.7744C15.7292 38.9255 18.724 38.04 19.9219 37.4932C20.1042 36.139 20.6511 35.2275 21.25 34.7067C16.6146 34.1859 11.7709 32.389 11.7709 24.4202C11.7709 22.1546 12.5781 20.2796 13.9063 18.8213C13.6979 18.3005 12.9688 16.165 14.1146 13.3005C14.1146 13.3005 15.8594 12.7536 19.8438 15.4359C21.5104 14.9671 23.2813 14.7327 25.0521 14.7327C26.8229 14.7327 28.5938 14.9671 30.2604 15.4359C34.2448 12.7275 35.9896 13.3005 35.9896 13.3005C37.1354 16.165 36.4063 18.3005 36.1979 18.8213C37.5261 20.2796 38.3334 22.1286 38.3334 24.4202C38.3334 32.415 33.4636 34.1859 28.8281 34.7067C29.5834 35.3577 30.2344 36.6077 30.2344 38.5609C30.2344 41.3473 30.2084 43.5869 30.2084 44.29C30.2084 44.8369 30.599 45.488 31.6406 45.2796C35.7764 43.8834 39.3703 41.2254 41.9163 37.6797C44.4623 34.134 45.8322 29.8791 45.8334 25.514C45.8334 14.0036 36.5104 4.68066 25 4.68066Z" clip-rule="evenodd"/></svg>