<svg width="1440" height="1024" viewBox="0 0 1440 1024" fill="none" xmlns="http://www.w3.org/2000/svg">
<path opacity="0.03" d="M719.344 511.993L600.846 307.462L839.465 307.462L719.344 511.993Z" fill="#8855C4" fill-opacity="0.2"/>
<path opacity="0.15" d="M1076.46 307.462L1194.96 511.993H957.963L1076.46 307.462Z" fill="#8855C4" fill-opacity="0.2"/>
<path opacity="0.37" d="M1433.58 101.308L1315.08 -104.846L1552.08 -104.846L1433.58 101.308Z" fill="#8855C4" fill-opacity="0.2"/>
<path opacity="0.31" d="M125.23 307.462L243.729 101.308L363.85 307.462H125.23Z" fill="#E6E6E6" fill-opacity="0.2"/>
<path opacity="0.43" d="M1194.96 101.308L1076.46 -104.846L1315.08 -104.846L1194.96 101.308Z" fill="#8855C4" fill-opacity="0.2"/>
<path opacity="0.23" d="M600.846 307.462L719.344 101.308L839.465 307.462H600.846Z" fill="#8855C4" fill-opacity="0.2"/>
<path opacity="0.4" d="M-111.765 307.462L6.73261 511.993H-231.887L-111.765 307.462Z" fill="#8855C4" fill-opacity="0.2"/>
<path opacity="0.25" d="M363.85 -104.846L482.348 101.308L243.729 101.308L363.85 -104.846Z" fill="#8855C4" fill-opacity="0.2"/>
<path opacity="0.5" d="M839.465 307.462L957.963 101.308L1076.46 307.462H839.465Z" fill="#4B207A" fill-opacity="0.2"/>
<path opacity="0.02" d="M482.348 101.308L363.85 -104.846L600.846 -104.846L482.348 101.308Z" fill="#8855C4" fill-opacity="0.2"/>
<path opacity="0.5" d="M957.963 511.993L839.465 307.462L1076.46 307.462L957.963 511.993Z" fill="#E6E6E6" fill-opacity="0.2"/>
<path opacity="0.96" d="M363.85 307.462L482.348 101.308L600.846 307.462H363.85Z" fill="#8855C4" fill-opacity="0.2"/>
<path opacity="0.57" d="M482.348 101.308L363.85 307.462L243.729 101.308L482.348 101.308Z" fill="#8855C4" fill-opacity="0.2"/>
<path opacity="0.31" d="M-111.765 -104.846L6.73261 101.308L-231.887 101.308L-111.765 -104.846Z" fill="#8855C4" fill-opacity="0.2"/>
<path opacity="0.03" d="M125.23 -104.846L243.728 101.308L6.73242 101.308L125.23 -104.846Z" fill="#8855C4" fill-opacity="0.2"/>
<path opacity="0.15" d="M6.73239 101.308L-111.766 -104.846L125.23 -104.846L6.73239 101.308Z" fill="#8855C4" fill-opacity="0.2"/>
<path opacity="0.6" d="M1076.46 -104.846L1194.96 101.308L957.963 101.308L1076.46 -104.846Z" fill="#E6E6E6" fill-opacity="0.2"/>
<path opacity="0.66" d="M6.73239 511.993L-111.766 307.462L125.23 307.462L6.73239 511.993Z" fill="#8855C4" fill-opacity="0.2"/>
<path opacity="0.6" d="M600.846 -104.846L719.344 101.308L482.348 101.308L600.846 -104.846Z" fill="#E6E6E6" fill-opacity="0.2"/>
<path opacity="0.63" d="M957.963 101.308L839.465 -104.846L1076.46 -104.846L957.963 101.308Z" fill="#8855C4" fill-opacity="0.2"/>
<path opacity="0.07" d="M1194.96 511.993L1076.46 307.462L1315.08 307.462L1194.96 511.993Z" fill="#4B207A" fill-opacity="0.2"/>
<path opacity="0.99" d="M1552.08 307.462L1670.58 511.993H1433.58L1552.08 307.462Z" fill="#8855C4" fill-opacity="0.2"/>
<path opacity="0.95" d="M243.729 511.993L125.23 307.462L363.85 307.462L243.729 511.993Z" fill="#4B207A" fill-opacity="0.2"/>
<path opacity="0.06" d="M1433.58 511.993L1315.08 307.462L1552.08 307.462L1433.58 511.993Z" fill="#4B207A" fill-opacity="0.2"/>
<path opacity="0.23" d="M839.465 -104.846L957.963 101.308L719.344 101.308L839.465 -104.846Z" fill="#8855C4" fill-opacity="0.2"/>
<path opacity="0.31" d="M1076.46 307.462L1194.96 101.308L1315.08 307.462H1076.46Z" fill="#8855C4" fill-opacity="0.2"/>
<path opacity="0.12" d="M719.344 101.308L600.846 -104.846L839.465 -104.846L719.344 101.308Z" fill="#8855C4" fill-opacity="0.2"/>
<path opacity="0.04" d="M719.344 101.308L600.846 307.462L482.348 101.308L719.344 101.308Z" fill="#8855C4" fill-opacity="0.2"/>
<path opacity="0.36" d="M243.728 101.308L125.23 307.462L6.73242 101.308L243.728 101.308Z" fill="#8855C4" fill-opacity="0.2"/>
<path opacity="0.66" d="M-111.766 307.462L6.73239 101.308L125.23 307.462H-111.766Z" fill="#E6E6E6" fill-opacity="0.2"/>
<path opacity="0.6" d="M1315.08 307.462L1433.58 101.308L1552.08 307.462H1315.08Z" fill="#8855C4" fill-opacity="0.2"/>
<path opacity="0.88" d="M243.729 101.308L125.23 -104.846L363.85 -104.846L243.729 101.308Z" fill="#8855C4" fill-opacity="0.2"/>
<path d="M600.846 307.462L719.344 511.993H482.348L600.846 307.462Z" fill="#8855C4" fill-opacity="0.2"/>
<path d="M1194.96 101.308L1076.46 307.462L957.963 101.308L1194.96 101.308Z" fill="#4B207A" fill-opacity="0.2"/>
<path opacity="0.49" d="M957.963 101.308L839.465 307.462L719.344 101.308L957.963 101.308Z" fill="#E6E6E6" fill-opacity="0.2"/>
<path opacity="0.09" d="M1315.08 -104.846L1433.58 101.308L1194.96 101.308L1315.08 -104.846Z" fill="#E6E6E6" fill-opacity="0.2"/>
<path opacity="0.29" d="M1433.58 101.308L1315.08 307.462L1194.96 101.308L1433.58 101.308Z" fill="#4B207A" fill-opacity="0.2"/>
<path opacity="0.39" d="M482.348 511.993L363.85 307.462L600.846 307.462L482.348 511.993Z" fill="#8855C4" fill-opacity="0.2"/>
<path opacity="0.64" d="M1552.08 -104.846L1670.58 101.308L1433.58 101.308L1552.08 -104.846Z" fill="#8855C4" fill-opacity="0.2"/>
<path opacity="0.61" d="M6.73261 101.308L-111.765 307.462L-231.887 101.308L6.73261 101.308Z" fill="#8855C4" fill-opacity="0.2"/>
<path opacity="0.42" d="M839.465 707.148L957.963 500.993L1076.46 707.148H839.465Z" fill="#8855C4" fill-opacity="0.2"/>
<path opacity="0.37" d="M1433.58 913.302L1315.08 707.147H1552.08L1433.58 913.302Z" fill="#8855C4" fill-opacity="0.2"/>
<path opacity="0.31" d="M125.23 1119.46L243.729 913.302L363.85 1119.46H125.23Z" fill="#E6E6E6" fill-opacity="0.2"/>
<path opacity="0.94" d="M363.85 707.148L482.348 500.993L600.846 707.148H363.85Z" fill="#8855C4" fill-opacity="0.2"/>
<path opacity="0.43" d="M1194.96 913.302L1076.46 707.147H1315.08L1194.96 913.302Z" fill="#8855C4" fill-opacity="0.2"/>
<path opacity="0.23" d="M600.846 1119.46L719.344 913.302L839.465 1119.46H600.846Z" fill="#8855C4" fill-opacity="0.2"/>
<path opacity="0.25" d="M363.85 707.147L482.348 913.302H243.729L363.85 707.147Z" fill="#8855C4" fill-opacity="0.2"/>
<path opacity="0.5" d="M839.465 1119.46L957.963 913.302L1076.46 1119.46H839.465Z" fill="#4B207A" fill-opacity="0.2"/>
<path opacity="0.02" d="M482.348 913.302L363.85 707.147H600.846L482.348 913.302Z" fill="#8855C4" fill-opacity="0.2"/>
<path opacity="0.98" d="M1194.96 500.993L1076.46 707.148L957.963 500.993H1194.96Z" fill="#8855C4" fill-opacity="0.2"/>
<path opacity="0.96" d="M363.85 1119.46L482.348 913.302L600.846 1119.46H363.85Z" fill="#8855C4" fill-opacity="0.2"/>
<path opacity="0.57" d="M482.348 913.302L363.85 1119.46L243.729 913.302H482.348Z" fill="#8855C4" fill-opacity="0.2"/>
<path opacity="0.45" d="M1076.46 707.148L1194.96 500.993L1315.08 707.148H1076.46Z" fill="#8855C4" fill-opacity="0.2"/>
<path opacity="0.31" d="M-111.765 707.147L6.73261 913.302H-231.887L-111.765 707.147Z" fill="#8855C4" fill-opacity="0.2"/>
<path opacity="0.03" d="M125.23 707.147L243.728 913.302H6.73242L125.23 707.147Z" fill="#8855C4" fill-opacity="0.2"/>
<path opacity="0.15" d="M6.73239 913.302L-111.766 707.147H125.23L6.73239 913.302Z" fill="#8855C4" fill-opacity="0.2"/>
<path opacity="0.6" d="M1076.46 707.147L1194.96 913.302H957.963L1076.46 707.147Z" fill="#E6E6E6" fill-opacity="0.2"/>
<path opacity="0.6" d="M600.846 707.147L719.344 913.302H482.348L600.846 707.147Z" fill="#E6E6E6" fill-opacity="0.2"/>
<path opacity="0.69" d="M243.728 500.993L125.23 707.148L6.73242 500.993H243.728Z" fill="#8855C4" fill-opacity="0.2"/>
<path opacity="0.42" d="M600.846 707.148L719.344 500.993L839.465 707.148H600.846Z" fill="#4B207A" fill-opacity="0.2"/>
<path opacity="0.63" d="M957.963 913.302L839.465 707.147H1076.46L957.963 913.302Z" fill="#8855C4" fill-opacity="0.2"/>
<path opacity="0.23" d="M839.465 707.147L957.963 913.302H719.344L839.465 707.147Z" fill="#8855C4" fill-opacity="0.2"/>
<path opacity="0.31" d="M1076.46 1119.46L1194.96 913.302L1315.08 1119.46H1076.46Z" fill="#8855C4" fill-opacity="0.2"/>
<path opacity="0.12" d="M719.344 913.302L600.846 707.147H839.465L719.344 913.302Z" fill="#8855C4" fill-opacity="0.2"/>
<path opacity="0.04" d="M719.344 913.302L600.846 1119.46L482.348 913.302H719.344Z" fill="#8855C4" fill-opacity="0.2"/>
<path opacity="0.36" d="M243.728 913.302L125.23 1119.46L6.73242 913.302H243.728Z" fill="#8855C4" fill-opacity="0.2"/>
<path opacity="0.51" d="M125.23 707.148L243.729 500.993L363.85 707.148H125.23Z" fill="#8855C4" fill-opacity="0.2"/>
<path opacity="0.66" d="M-111.766 1119.46L6.73239 913.302L125.23 1119.46H-111.766Z" fill="#E6E6E6" fill-opacity="0.2"/>
<path opacity="0.26" d="M1315.08 707.148L1433.58 500.993L1552.08 707.148H1315.08Z" fill="#8855C4" fill-opacity="0.2"/>
<path opacity="0.2" d="M719.344 500.993L600.846 707.148L482.348 500.993H719.344Z" fill="#4B207A" fill-opacity="0.2"/>
<path opacity="0.6" d="M1315.08 1119.46L1433.58 913.302L1552.08 1119.46H1315.08Z" fill="#8855C4" fill-opacity="0.2"/>
<path opacity="0.88" d="M243.729 913.302L125.23 707.147H363.85L243.729 913.302Z" fill="#8855C4" fill-opacity="0.2"/>
<path opacity="0.15" d="M-111.766 707.148L6.73239 500.993L125.23 707.148H-111.766Z" fill="#4B207A" fill-opacity="0.2"/>
<path d="M1194.96 913.302L1076.46 1119.46L957.963 913.302H1194.96Z" fill="#4B207A" fill-opacity="0.2"/>
<path opacity="0.49" d="M957.963 913.302L839.465 1119.46L719.344 913.302H957.963Z" fill="#E6E6E6" fill-opacity="0.2"/>
<path opacity="0.09" d="M1315.08 707.147L1433.58 913.302H1194.96L1315.08 707.147Z" fill="#E6E6E6" fill-opacity="0.2"/>
<path opacity="0.29" d="M1433.58 913.302L1315.08 1119.46L1194.96 913.302H1433.58Z" fill="#4B207A" fill-opacity="0.2"/>
<path opacity="0.64" d="M1552.08 707.147L1670.58 913.302H1433.58L1552.08 707.147Z" fill="#8855C4" fill-opacity="0.2"/>
<path opacity="0.61" d="M6.73261 913.302L-111.765 1119.46L-231.887 913.302H6.73261Z" fill="#8855C4" fill-opacity="0.2"/>
</svg>
